<svg width="520" height="520" viewBox="0 0 520 520" fill="none" xmlns="http://www.w3.org/2000/svg">
  <rect x="24" y="28" width="472" height="464" rx="80" fill="#F6EFE5"/>
  <rect x="84" y="96" width="260" height="170" rx="22" fill="#FFFFFF" stroke="#D6CFC2" stroke-width="2"/>
  <rect x="110" y="122" width="208" height="18" rx="9" fill="#E4572E" fill-opacity="0.9"/>
  <rect x="110" y="152" width="170" height="12" rx="6" fill="#1B1A17" fill-opacity="0.15"/>
  <rect x="110" y="176" width="140" height="12" rx="6" fill="#1B1A17" fill-opacity="0.12"/>
  <rect x="110" y="204" width="90" height="28" rx="14" fill="#F4B942"/>

  <rect x="250" y="250" width="210" height="250" rx="26" fill="#FFFFFF" stroke="#D6CFC2" stroke-width="2"/>
  <rect x="272" y="276" width="168" height="16" rx="8" fill="#1B1A17" fill-opacity="0.2"/>
  <rect x="272" y="302" width="140" height="12" rx="6" fill="#1B1A17" fill-opacity="0.12"/>
  <rect x="272" y="326" width="110" height="12" rx="6" fill="#1B1A17" fill-opacity="0.12"/>
  <rect x="272" y="356" width="120" height="36" rx="18" fill="#E4572E"/>
  <rect x="272" y="404" width="160" height="70" rx="14" fill="#F4B942" fill-opacity="0.6"/>

  <rect x="96" y="296" width="140" height="190" rx="24" fill="#1B1A17" fill-opacity="0.95"/>
  <rect x="114" y="322" width="104" height="14" rx="7" fill="#F6EFE5" fill-opacity="0.85"/>
  <rect x="114" y="348" width="86" height="10" rx="5" fill="#F6EFE5" fill-opacity="0.6"/>
  <rect x="114" y="366" width="76" height="10" rx="5" fill="#F6EFE5" fill-opacity="0.6"/>
  <rect x="114" y="392" width="90" height="28" rx="14" fill="#F4B942"/>

  <circle cx="400" cy="132" r="34" fill="#F4B942"/>
  <circle cx="430" cy="162" r="10" fill="#E4572E"/>
  <path d="M142 260C190 242 240 242 292 260" stroke="#B83F1E" stroke-width="10" stroke-linecap="round"/>
</svg>
